<svg height="512pt" viewBox="0 0 512 512" width="512pt" xmlns="http://www.w3.org/2000/svg"><path d="m511.402344 121.945312v285.734376c0 13.414062-10.871094 24.285156-24.285156 24.285156h-462.832032c-13.414062 0-24.285156-10.871094-24.285156-24.285156v-285.734376c0-15.449218 12.523438-27.972656 27.972656-27.972656h455.457032c15.449218.003906 27.972656 12.527344 27.972656 27.972656zm0 0" fill="#6193ff"/><path d="m511.402344 351.878906v55.800782c0 13.414062-10.871094 24.285156-24.285156 24.285156h-462.832032c-13.414062 0-24.285156-10.871094-24.285156-24.285156v-55.800782zm0 0" fill="#628db2"/><path d="m198.671875 429.523438h114.058594v56.53125h-114.058594zm0 0" fill="#628db2"/><path d="m198.671875 431.765625h114.058594v17.917969h-114.058594zm0 0" fill="#41739f"/><path d="m352.242188 512h-193.085938c0-15.566406 12.621094-28.1875 28.1875-28.1875h136.714844c15.566406 0 28.183594 12.621094 28.183594 28.1875zm0 0" fill="#41739f"/><path d="m106.382812 93.976562h337.023438v257.902344h-337.023438zm0 0" fill="#407bff"/><path d="m450.167969 0h-337.019531c-14.335938 0-25.957032 11.621094-25.957032 25.957031v325.925781h337.019532v-295.835937" fill="#e5f4ff"/><path d="m424.210938 93.976562v-68.019531c0-14.335937 11.621093-25.957031 25.957031-25.957031 14.335937 0 25.957031 11.621094 25.957031 25.957031v68.015625" fill="#c4daec"/><path d="m443.40625 25.957031c0-10.945312 6.777344-20.300781 16.359375-24.117187-2.96875-1.183594-6.207031-1.839844-9.597656-1.839844-14.335938 0-25.957031 11.621094-25.957031 25.957031v68.019531l19.195312-.003906zm0 0" fill="#a3c0d9"/><path d="m127.328125 107.253906h-10.265625c-1.730469 0-2.59375-.867187-2.59375-2.601562v-74.328125c0-1.730469.867188-2.597657 2.59375-2.597657h9.273438c1.734374 0 2.886718.578126 3.464843 1.730469l24.972657 46.875h.496093v-46.007812c0-1.730469.867188-2.597657 2.59375-2.597657h10.265625c1.730469 0 2.59375.867188 2.59375 2.597657v74.332031c0 1.730469-.863281 2.597656-2.59375 2.597656h-9.027344c-1.8125 0-3.132812-.824218-3.957031-2.472656l-24.726562-46.011719h-.492188v45.882813c0 1.734375-.867187 2.601562-2.597656 2.601562zm0 0" fill="#628db2"/><path d="m229.824219 107.253906h-40.429688c-1.730469 0-2.597656-.867187-2.597656-2.601562v-74.328125c0-1.730469.867187-2.597657 2.597656-2.597657h40.429688c1.648437 0 2.472656.867188 2.472656 2.597657v8.410156c0 1.730469-.824219 2.597656-2.472656 2.597656h-25.839844c-.988281 0-1.484375.453125-1.484375 1.359375v16.078125c0 .910157.496094 1.359375 1.484375 1.359375h21.144531c1.730469 0 2.59375.867188 2.59375 2.597656v8.410157c0 1.734375-.867187 2.597656-2.59375 2.597656h-21.144531c-.988281 0-1.484375.457031-1.484375 1.363281v17.191406c0 .90625.496094 1.359376 1.484375 1.359376h25.839844c1.648437 0 2.472656.867187 2.472656 2.59375v8.410156c0 1.734375-.824219 2.601562-2.472656 2.601562zm0 0" fill="#628db2"/><path d="m273.46875 107.253906h-17.308594c-1.816406 0-2.84375-.867187-3.09375-2.601562l-13.226562-74.328125c-.25-1.730469.617187-2.597657 2.59375-2.597657h12.859375c1.894531 0 2.882812.867188 2.96875 2.597657l7.261719 51.613281h.867187l11.773437-51.984375c.25-1.484375 1.113282-2.226563 2.597657-2.226563h13.847656c1.566406 0 2.472656.703126 2.722656 2.101563l11.90625 52.765625h.988281l7.257813-52.144531c.082031-1.8125 1.070313-2.722657 2.96875-2.722657h12.855469c1.980468 0 2.84375.910157 2.597656 2.722657l-13.351562 74.207031c-.25 1.730469-1.199219 2.597656-2.847657 2.597656h-17.433593c-1.730469 0-2.71875-.867187-2.964844-2.597656l-11.125-58.007812h-.496094l-11.25 58.003906c-.332031 1.734375-1.320312 2.601562-2.96875 2.601562zm0 0" fill="#628db2"/><path d="m343.820312 86.96875v-2.472656c0-1.730469.867188-2.597656 2.597657-2.597656h10.507812c1.730469 0 2.597657.867187 2.597657 2.597656v.988281c0 3.132813.617187 5.277344 1.855468 6.429687 1.234375 1.15625 3.5 1.734376 6.800782 1.734376h5.808593c3.214844 0 5.460938-.621094 6.738281-1.855469 1.28125-1.238281 1.917969-3.546875 1.917969-6.925781v-1.484376c0-2.390624-.96875-4.226562-2.90625-5.503906s-4.347656-2.039062-7.230469-2.289062c-2.886718-.246094-5.996093-.722656-9.335937-1.421875-3.335937-.699219-6.449219-1.609375-9.335937-2.722657-2.886719-1.109374-5.296876-3.296874-7.230469-6.554687-1.941407-3.253906-2.90625-7.4375-2.90625-12.550781v-4.328125c0-6.433594 1.8125-11.421875 5.441406-14.964844 3.625-3.546875 8.652344-5.320313 15.082031-5.320313h12.367188c6.507812 0 11.578125 1.773438 15.207031 5.320313 3.625 3.542969 5.4375 8.53125 5.4375 14.964844v2.347656c0 1.730469-.867187 2.597656-2.59375 2.597656h-10.511719c-1.730468 0-2.59375-.867187-2.59375-2.597656v-.742187c0-3.214844-.621094-5.398438-1.855468-6.554688-1.238282-1.152344-3.503907-1.730469-6.800782-1.730469h-4.824218c-3.378907 0-5.667969.640625-6.859376 1.914063-1.199218 1.28125-1.792968 3.773437-1.792968 7.484375v2.347656c0 3.878906 3.378906 6.105469 10.136718 6.679687 7.007813.578126 13.230469 1.980469 18.671876 4.207032 2.882812 1.234375 5.296874 3.441406 7.234374 6.613281 1.933594 3.175781 2.902344 7.234375 2.902344 12.183594v4.207031c0 6.429688-1.8125 11.417969-5.4375 14.960938-3.628906 3.546874-8.65625 5.320312-15.085937 5.320312h-13.476563c-6.429687 0-11.457031-1.773438-15.082031-5.320312-3.632813-3.539063-5.445313-8.53125-5.445313-14.960938zm0 0" fill="#628db2"/><path d="m397.945312 126.078125h-274.949218c-4.664063 0-8.449219 3.78125-8.449219 8.449219 0 4.664062 3.785156 8.449218 8.449219 8.449218h274.949218c4.667969 0 8.449219-3.785156 8.449219-8.449218 0-4.667969-3.78125-8.449219-8.449219-8.449219zm0 0" fill="#c4daec"/><path d="m235.109375 320.875h-107.425781c-2.585938 0-4.6875-2.097656-4.6875-4.6875v-140.953125c0-2.589844 2.097656-4.6875 4.6875-4.6875h107.425781c2.589844 0 4.6875 2.097656 4.6875 4.6875v140.953125c0 2.589844-2.097656 4.6875-4.6875 4.6875zm0 0" fill="#ffc964"/><g fill="#a3c0d9"><path d="m382.304688 182.285156h-98.125c-4.664063 0-8.449219-3.785156-8.449219-8.449218 0-4.667969 3.785156-8.449219 8.449219-8.449219h98.125c4.667968 0 8.449218 3.78125 8.449218 8.449219 0 4.664062-3.78125 8.449218-8.449218 8.449218zm0 0"/><path d="m382.304688 218.222656h-98.125c-4.664063 0-8.449219-3.785156-8.449219-8.449218 0-4.667969 3.785156-8.449219 8.449219-8.449219h98.125c4.667968 0 8.449218 3.78125 8.449218 8.449219 0 4.664062-3.78125 8.449218-8.449218 8.449218zm0 0"/><path d="m382.304688 254.160156h-98.125c-4.664063 0-8.449219-3.78125-8.449219-8.449218 0-4.664063 3.785156-8.449219 8.449219-8.449219h98.125c4.667968 0 8.449218 3.785156 8.449218 8.449219 0 4.667968-3.78125 8.449218-8.449218 8.449218zm0 0"/><path d="m382.304688 290.097656h-98.125c-4.664063 0-8.449219-3.78125-8.449219-8.449218 0-4.664063 3.785156-8.449219 8.449219-8.449219h98.125c4.667968 0 8.449218 3.785156 8.449218 8.449219 0 4.667968-3.78125 8.449218-8.449218 8.449218zm0 0"/><path d="m338.53125 326.035156h-54.351562c-4.664063 0-8.449219-3.78125-8.449219-8.445312 0-4.667969 3.785156-8.449219 8.449219-8.449219h54.351562c4.667969 0 8.449219 3.78125 8.449219 8.449219 0 4.664062-3.78125 8.445312-8.449219 8.445312zm0 0"/></g></svg>